inDegrees=no
num_controls=7
num_derivatives=13
num_iterations=88
num_multipliers=7
num_parameters=0
num_slacks=7
num_states=26
objective=0.453650
objective_accelerations=0.069387
objective_balance=0.001863
objective_effort=0.021205
objective_height=0.352183
objective_ligament=0.009012
solver_duration=1241.916511
status=Solve_Succeeded
success=true
DataType=double
version=3
OpenSimVersion=4.5
endheader
time	/jointset/ground_pelvis/pelvis_tilt/value	/jointset/ground_pelvis/pelvis_tx/value	/jointset/ground_pelvis/pelvis_ty/value	/jointset/hip_l/hip_flexion_l/value	/jointset/hip_l/hip_adduction_l/value	/jointset/hip_l/hip_rotation_l/value	/jointset/back/lumbar_extension/value	/jointset/patellofemoral_l/patellar_flexion_l/value	/jointset/knee_l/knee_flexion_l/value	/jointset/knee_l/knee_adduction_l/value	/jointset/knee_l/knee_rotation_l/value	/jointset/ankle_l/ankle_angle_l/value	/jointset/subtalar_l/subtalar_angle_l/value	/jointset/ground_pelvis/pelvis_tilt/speed	/jointset/ground_pelvis/pelvis_tx/speed	/jointset/ground_pelvis/pelvis_ty/speed	/jointset/hip_l/hip_flexion_l/speed	/jointset/hip_l/hip_adduction_l/speed	/jointset/hip_l/hip_rotation_l/speed	/jointset/back/lumbar_extension/speed	/jointset/patellofemoral_l/patellar_flexion_l/speed	/jointset/knee_l/knee_flexion_l/speed	/jointset/knee_l/knee_adduction_l/speed	/jointset/knee_l/knee_rotation_l/speed	/jointset/ankle_l/ankle_angle_l/speed	/jointset/subtalar_l/subtalar_angle_l/speed	/forceset/tau_hip_flexion_l	/forceset/tau_hip_adduction_l	/forceset/tau_hip_rotation_l	/forceset/tau_knee_flexion_l	/forceset/tau_ankle_angle_l	/forceset/tau_subtalar_angle_l	/forceset/tau_lumbar_extension	lambda_cid13_p0	lambda_cid13_p1	lambda_cid13_p2	lambda_cid13_p3	lambda_cid13_p4	lambda_cid13_p5	lambda_cid14_p0	/jointset/ground_pelvis/pelvis_tilt/accel	/jointset/ground_pelvis/pelvis_tx/accel	/jointset/ground_pelvis/pelvis_ty/accel	/jointset/hip_l/hip_flexion_l/accel	/jointset/hip_l/hip_adduction_l/accel	/jointset/hip_l/hip_rotation_l/accel	/jointset/back/lumbar_extension/accel	/jointset/patellofemoral_l/patellar_flexion_l/accel	/jointset/knee_l/knee_flexion_l/accel	/jointset/knee_l/knee_adduction_l/accel	/jointset/knee_l/knee_rotation_l/accel	/jointset/ankle_l/ankle_angle_l/accel	/jointset/subtalar_l/subtalar_angle_l/accel	gamma_cid13_p0	gamma_cid13_p1	gamma_cid13_p2	gamma_cid13_p3	gamma_cid13_p4	gamma_cid13_p5	gamma_cid14_p0
0	0.0568720266242803	0.1035482321663058	0.905353450446588	0.1266922784136757	-0.3483065075871553	-0.2338194864456657	-0.2144969558742783	0.2051545070141967	0.2051545070141877	-0.1300029180697133	-0.1583400049419552	0.09024313228550125	0.1027723042963976	0	0	0	0	0	0	0	0	0	0	0	0	0	0.1220946893125168	-0.03192945959198601	-0.005150788475690288	-0.220928387266033	0.1187840952956038	-0.07197704804717442	-0.05956114956329475	6.632626469665944	30.39870070591765	-5.470516306021065	13.73827790774566	-442.5604549070678	-47.48455491007979	-25.85543053621176	-6.067295232882794	-2.522873104811096	-1.068421719451095	16.20054469599135	-0.06291009331800099	3.099022920970591	-4.37652293012595	10.42550176628233	10.42550176628359	2.498064616422259	-0.7909031060246939	1.206754428553923	0.2793340021757744	-1.328189477384255e-08	3.583381262703805e-07	-2.198621608969629e-07	8.023596888695886e-08	-3.525870969359462e-08	2.336341202554319e-07	6.664628095613482e-08
0.01	0.05658338751951811	0.103422955873074	0.9053014728984257	0.1274796356403029	-0.3483103086777546	-0.2336612915282998	-0.2147211153060058	0.2056666485848455	0.205666648584828	-0.1298820392878665	-0.1583735217203584	0.09030175348137294	0.1027849644893279	-0.0571189008694211	-0.02500692168648571	-0.01037779998949482	0.1566287927460431	-0.0009227435169962792	0.03161995088586786	-0.04447309740404841	0.1023051530061485	0.1023051530061612	0.02380232689623578	-0.006739222526844224	0.01175009526702857	0.00236314519623515	0.11300834458308	-0.04019356623252923	-0.003577408151359561	-0.2072229698330543	0.09752888685774022	-0.05874398918954275	-0.05289084411389026	0.7144218262991339	24.92407325305468	-3.725329871641915	17.10377475160352	-441.8303998738384	-57.37867066978393	-25.85571170644761	-5.442843068955336	-2.482335109668746	-1.019809743981921	15.26765331434262	-0.1313572209506343	3.190672479322729	-4.428884804188393	10.11453457031706	10.11453457031769	2.265340513554428	-0.6208576776438739	1.163021185065485	0.1894412679253853	-1.785989285806938e-08	4.839091690176844e-07	-1.1671037347213e-07	7.147755994949434e-08	-1.804330791739066e-07	1.693167884836763e-07	7.255321642905365e-08
0.02	0.05574182829505986	0.1030490636811567	0.9051462472293111	0.1298080021444752	-0.3483282173515355	-0.2331874588406951	-0.2153792420435051	0.2071981441860464	0.2071981441860403	-0.1295343324796225	-0.1584755158943681	0.09047865245176873	0.1028161834321362	-0.1105840239381592	-0.0497231797370987	-0.02064962419042644	0.308201855509359	-0.002821516636409808	0.06312755404884686	-0.08679346115384877	0.2038708061137328	0.2038708061137327	0.04536560528568477	-0.01369547911887352	0.02365555490558016	0.003711749975591111	0.1039219998536461	-0.04845767287302066	-0.002004027826974391	-0.1935175524001055	0.07627367841987755	-0.04551093033185608	-0.046220538664481	-5.154574524551071	19.44900088152761	-1.989407626925786	20.51723686005206	-440.1618442471039	-67.07841658637966	-25.85654947368089	-5.336539672746076	-2.464740377636649	-1.04722656173845	15.18939869944593	-0.2581160138014568	3.076553376392817	-3.945976199276296	10.2776017865695	10.27760178656569	2.050254915064894	-0.8343099190617326	1.237827302858419	0.07642591879989596	-2.243789094229621e-08	6.094802117649882e-07	-1.355858604729708e-08	6.271915101202983e-08	-3.256074486542186e-07	1.049994567119208e-07	7.846015190197248e-08
0.03	0.05437796201601747	0.1024302405464599	0.9048885716109695	0.1336299730318667	-0.3483675921665417	-0.2324006525158448	-0.2164493282400146	0.2097366522538983	0.2097366522539075	-0.1289788496332673	-0.1586466259975502	0.09077379989523146	0.1028579508805429	-0.1620992360086371	-0.07391247855319072	-0.03088323486146284	0.4555551807888783	-0.004975931718391783	0.09406655193527988	-0.1268932748403947	0.3031701479189367	0.3031701479189264	0.06568073961191584	-0.02039109986963087	0.035232821645615	0.004683333611662173	0.1020913012497915	-0.04476051261769105	-0.001913431729927216	-0.1939722095449934	0.0790637071843785	-0.0483471517552865	-0.04455092263953844	-4.395994489876573	20.64452936669152	-2.290323503112388	19.44234982635646	-439.9080493860856	-64.22390684012025	-25.85774220516677	-5.045509697361341	-2.37666682809114	-1.01115433536626	14.41272580239295	-0.1825685178454423	3.077521725582034	-3.992408457086025	9.656985730776377	9.656985730777173	2.014713390745296	-0.5668888877117721	1.096528803548911	0.1136692511334171	-3.629634890276324e-08	6.124558179024503e-07	-5.337631503813224e-08	8.83925330454868e-08	-4.809105118092233e-07	1.101364427616405e-07	8.981154673277003e-08
